{
	"asset":{
		"generator":"Khronos glTF Blender I/O v4.3.47",
		"version":"2.0"
	},
	"extensionsUsed":[
		"KHR_materials_emissive_strength"
	],
	"scene":0,
	"scenes":[
		{
			"name":"Scene",
			"nodes":[
				0,
				1,
				2,
				3
			]
		}
	],
	"nodes":[
		{
			"extras":{
				"booleans":{}
			},
			"mesh":0,
			"name":"\u043a\u043e\u0440\u043e\u0431\u043a\u0430.003",
			"scale":[
				0.8610855937004089,
				0.4890776574611664,
				0.4890776574611664
			],
			"translation":[
				1.0416533946990967,
				0.9103662967681885,
				-0.9835119247436523
			]
		},
		{
			"extras":{
				"booleans":{}
			},
			"mesh":1,
			"name":"\u043a\u043e\u0440\u043e\u0431\u043a\u0430.002",
			"scale":[
				0.8610855937004089,
				0.4890776574611664,
				0.4890776574611664
			],
			"translation":[
				1.0803077220916748,
				0.9103662967681885,
				0.18874835968017578
			]
		},
		{
			"extras":{
				"booleans":{}
			},
			"mesh":2,
			"name":"SCREEN.001",
			"scale":[
				0.06758611649274826,
				0.6593638062477112,
				0.3157625198364258
			],
			"translation":[
				2.01460599899292,
				3.1878697872161865,
				1.1742939949035645
			]
		},
		{
			"extras":{
				"booleans":{}
			},
			"mesh":3,
			"name":"BODY.001",
			"scale":[
				2,
				2,
				2
			],
			"translation":[
				0,
				2.027096748352051,
				0.004401683807373047
			]
		}
	],
	"materials":[
		{
			"doubleSided":true,
			"name":"MAIM_MATERIAL",
			"pbrMetallicRoughness":{
				"baseColorFactor":[
					0.4537700414657593,
					0.7274099588394165,
					1,
					1
				],
				"metallicFactor":0,
				"roughnessFactor":0.5
			}
		},
		{
			"doubleSided":true,
			"emissiveFactor":[
				1,
				1,
				1
			],
			"name":"screen",
			"pbrMetallicRoughness":{
				"metallicFactor":0,
				"roughnessFactor":0.5
			}
		},
		{
			"doubleSided":true,
			"emissiveFactor":[
				0.0370459258556366,
				1,
				0
			],
			"extensions":{
				"KHR_materials_emissive_strength":{
					"emissiveStrength":4
				}
			},
			"name":"Material.002",
			"pbrMetallicRoughness":{
				"baseColorFactor":[
					0.0370459258556366,
					1,
					0,
					1
				],
				"metallicFactor":0,
				"roughnessFactor":0.5
			}
		},
		{
			"doubleSided":true,
			"emissiveFactor":[
				1,
				1,
				1
			],
			"extensions":{
				"KHR_materials_emissive_strength":{
					"emissiveStrength":5
				}
			},
			"name":"Material.015",
			"pbrMetallicRoughness":{
				"metallicFactor":0,
				"roughnessFactor":0.5
			}
		}
	],
	"meshes":[
		{
			"name":"Cube.009",
			"primitives":[
				{
					"attributes":{
						"POSITION":0,
						"NORMAL":1,
						"TEXCOORD_0":2
					},
					"indices":3,
					"material":0
				}
			]
		},
		{
			"name":"Cube.008",
			"primitives":[
				{
					"attributes":{
						"POSITION":4,
						"NORMAL":5,
						"TEXCOORD_0":6
					},
					"indices":3,
					"material":0
				}
			]
		},
		{
			"name":"Cube.004",
			"primitives":[
				{
					"attributes":{
						"POSITION":7,
						"NORMAL":8,
						"TEXCOORD_0":9
					},
					"indices":10,
					"material":1
				}
			]
		},
		{
			"name":"Cube.003",
			"primitives":[
				{
					"attributes":{
						"POSITION":11,
						"NORMAL":12,
						"TEXCOORD_0":13
					},
					"indices":14,
					"material":0
				},
				{
					"attributes":{
						"POSITION":15,
						"NORMAL":16,
						"TEXCOORD_0":17
					},
					"indices":18,
					"material":2
				},
				{
					"attributes":{
						"POSITION":19,
						"NORMAL":20,
						"TEXCOORD_0":21
					},
					"indices":22,
					"material":3
				}
			]
		}
	],
	"accessors":[
		{
			"bufferView":0,
			"componentType":5126,
			"count":1192,
			"max":[
				1.2786113023757935,
				1,
				1
			],
			"min":[
				-1,
				-1,
				-1
			],
			"type":"VEC3"
		},
		{
			"bufferView":1,
			"componentType":5126,
			"count":1192,
			"type":"VEC3"
		},
		{
			"bufferView":2,
			"componentType":5126,
			"count":1192,
			"type":"VEC2"
		},
		{
			"bufferView":3,
			"componentType":5123,
			"count":1788,
			"type":"SCALAR"
		},
		{
			"bufferView":4,
			"componentType":5126,
			"count":1192,
			"max":[
				1.2786113023757935,
				1,
				1
			],
			"min":[
				-1,
				-1,
				-1
			],
			"type":"VEC3"
		},
		{
			"bufferView":5,
			"componentType":5126,
			"count":1192,
			"type":"VEC3"
		},
		{
			"bufferView":6,
			"componentType":5126,
			"count":1192,
			"type":"VEC2"
		},
		{
			"bufferView":7,
			"componentType":5126,
			"count":24,
			"max":[
				1,
				0.39708197116851807,
				1
			],
			"min":[
				-1,
				-1,
				-1
			],
			"type":"VEC3"
		},
		{
			"bufferView":8,
			"componentType":5126,
			"count":24,
			"type":"VEC3"
		},
		{
			"bufferView":9,
			"componentType":5126,
			"count":24,
			"type":"VEC2"
		},
		{
			"bufferView":10,
			"componentType":5123,
			"count":36,
			"type":"SCALAR"
		},
		{
			"bufferView":11,
			"componentType":5126,
			"count":1558,
			"max":[
				1.0306202173233032,
				1,
				1
			],
			"min":[
				-1,
				-1,
				-1
			],
			"type":"VEC3"
		},
		{
			"bufferView":12,
			"componentType":5126,
			"count":1558,
			"type":"VEC3"
		},
		{
			"bufferView":13,
			"componentType":5126,
			"count":1558,
			"type":"VEC2"
		},
		{
			"bufferView":14,
			"componentType":5123,
			"count":4371,
			"type":"SCALAR"
		},
		{
			"bufferView":15,
			"componentType":5126,
			"count":17,
			"max":[
				0.974922239780426,
				0.80629962682724,
				0.270275354385376
			],
			"min":[
				0.8044010400772095,
				-0.1937004029750824,
				-0.7297247052192688
			],
			"type":"VEC3"
		},
		{
			"bufferView":16,
			"componentType":5126,
			"count":17,
			"type":"VEC3"
		},
		{
			"bufferView":17,
			"componentType":5126,
			"count":17,
			"type":"VEC2"
		},
		{
			"bufferView":18,
			"componentType":5123,
			"count":27,
			"type":"SCALAR"
		},
		{
			"bufferView":19,
			"componentType":5126,
			"count":96,
			"max":[
				0.5392177104949951,
				0.7961345911026001,
				0.2311568558216095
			],
			"min":[
				0.5392177104949951,
				-0.17895449697971344,
				-0.7028501033782959
			],
			"type":"VEC3"
		},
		{
			"bufferView":20,
			"componentType":5126,
			"count":96,
			"type":"VEC3"
		},
		{
			"bufferView":21,
			"componentType":5126,
			"count":96,
			"type":"VEC2"
		},
		{
			"bufferView":22,
			"componentType":5123,
			"count":270,
			"type":"SCALAR"
		}
	],
	"bufferViews":[
		{
			"buffer":0,
			"byteLength":14304,
			"byteOffset":0,
			"target":34962
		},
		{
			"buffer":0,
			"byteLength":14304,
			"byteOffset":14304,
			"target":34962
		},
		{
			"buffer":0,
			"byteLength":9536,
			"byteOffset":28608,
			"target":34962
		},
		{
			"buffer":0,
			"byteLength":3576,
			"byteOffset":38144,
			"target":34963
		},
		{
			"buffer":0,
			"byteLength":14304,
			"byteOffset":41720,
			"target":34962
		},
		{
			"buffer":0,
			"byteLength":14304,
			"byteOffset":56024,
			"target":34962
		},
		{
			"buffer":0,
			"byteLength":9536,
			"byteOffset":70328,
			"target":34962
		},
		{
			"buffer":0,
			"byteLength":288,
			"byteOffset":79864,
			"target":34962
		},
		{
			"buffer":0,
			"byteLength":288,
			"byteOffset":80152,
			"target":34962
		},
		{
			"buffer":0,
			"byteLength":192,
			"byteOffset":80440,
			"target":34962
		},
		{
			"buffer":0,
			"byteLength":72,
			"byteOffset":80632,
			"target":34963
		},
		{
			"buffer":0,
			"byteLength":18696,
			"byteOffset":80704,
			"target":34962
		},
		{
			"buffer":0,
			"byteLength":18696,
			"byteOffset":99400,
			"target":34962
		},
		{
			"buffer":0,
			"byteLength":12464,
			"byteOffset":118096,
			"target":34962
		},
		{
			"buffer":0,
			"byteLength":8742,
			"byteOffset":130560,
			"target":34963
		},
		{
			"buffer":0,
			"byteLength":204,
			"byteOffset":139304,
			"target":34962
		},
		{
			"buffer":0,
			"byteLength":204,
			"byteOffset":139508,
			"target":34962
		},
		{
			"buffer":0,
			"byteLength":136,
			"byteOffset":139712,
			"target":34962
		},
		{
			"buffer":0,
			"byteLength":54,
			"byteOffset":139848,
			"target":34963
		},
		{
			"buffer":0,
			"byteLength":1152,
			"byteOffset":139904,
			"target":34962
		},
		{
			"buffer":0,
			"byteLength":1152,
			"byteOffset":141056,
			"target":34962
		},
		{
			"buffer":0,
			"byteLength":768,
			"byteOffset":142208,
			"target":34962
		},
		{
			"buffer":0,
			"byteLength":540,
			"byteOffset":142976,
			"target":34963
		}
	],
	"buffers":[
		{
			"byteLength":143516,
			"uri":"obloshka_big.bin"
		}
	]
}
