{
	"asset":{
		"generator":"Khronos glTF Blender I/O v4.3.47",
		"version":"2.0"
	},
	"extensionsUsed":[
		"KHR_materials_transmission"
	],
	"scene":0,
	"scenes":[
		{
			"name":"Scene",
			"nodes":[
				0,
				1,
				2,
				3,
				4,
				5,
				6,
				7,
				8,
				9
			]
		}
	],
	"nodes":[
		{
			"extras":{
				"booleans":{}
			},
			"mesh":0,
			"name":"order screen",
			"rotation":[
				0,
				-0.6353005170822144,
				0,
				0.7722650766372681
			],
			"scale":[
				1.3444463014602661,
				1.3444463014602661,
				1.3444463014602661
			],
			"translation":[
				2.2121362686157227,
				2.1210989952087402,
				1.2470934391021729
			]
		},
		{
			"extras":{
				"booleans":{}
			},
			"mesh":1,
			"name":"main part.001",
			"rotation":[
				0,
				-0.6353004574775696,
				0,
				0.7722650766372681
			],
			"translation":[
				2.199568748474121,
				1.283629059791565,
				1.2831090688705444
			]
		},
		{
			"extras":{
				"booleans":{}
			},
			"mesh":2,
			"name":"main part",
			"rotation":[
				0,
				-0.6353004574775696,
				0,
				0.7722650766372681
			],
			"translation":[
				1.6560211181640625,
				0,
				1.1541208028793335
			]
		},
		{
			"extras":{
				"booleans":{}
			},
			"mesh":3,
			"name":"Cube.002",
			"rotation":[
				0,
				0.7722650766372681,
				0,
				0.6353005170822144
			],
			"scale":[
				-0.21972201764583588,
				-0.03487669676542282,
				-0.48137423396110535
			],
			"translation":[
				1.2583225965499878,
				1.3856137990951538,
				1.232257604598999
			]
		},
		{
			"extras":{
				"booleans":{}
			},
			"mesh":4,
			"name":"Cube.001",
			"rotation":[
				0,
				0.7722650766372681,
				0,
				0.6353005170822144
			],
			"scale":[
				-0.21972201764583588,
				-0.03487669676542282,
				-0.48137423396110535
			],
			"translation":[
				1.2583225965499878,
				1.8760151863098145,
				1.232257604598999
			]
		},
		{
			"extras":{
				"booleans":{}
			},
			"mesh":5,
			"name":"Cube",
			"rotation":[
				0,
				0.7722650766372681,
				0,
				0.6353005170822144
			],
			"scale":[
				-0.21972201764583588,
				-0.03487669676542282,
				-0.48137423396110535
			],
			"translation":[
				1.2583225965499878,
				2.449730634689331,
				1.232257604598999
			]
		},
		{
			"extras":{
				"booleans":{}
			},
			"mesh":6,
			"name":"\u043a\u043e\u0440\u043e\u0431\u043a\u0430.003",
			"rotation":[
				0,
				-0.8495307564735413,
				0,
				0.5275391340255737
			],
			"scale":[
				0.8610855937004089,
				0.4890776574611664,
				0.4890776574611664
			],
			"translation":[
				-0.8655388355255127,
				-0.11452877521514893,
				0.37745290994644165
			]
		},
		{
			"extras":{
				"booleans":{}
			},
			"mesh":7,
			"name":"\u043a\u043e\u0440\u043e\u0431\u043a\u0430.002",
			"rotation":[
				0,
				-0.8495307564735413,
				0,
				0.5275391340255737
			],
			"scale":[
				0.8610855937004089,
				0.4890776574611664,
				0.4890776574611664
			],
			"translation":[
				-1.9334006309509277,
				-0.11452877521514893,
				-0.10768640041351318
			]
		},
		{
			"extras":{
				"booleans":{}
			},
			"mesh":8,
			"name":"SCREEN.001",
			"rotation":[
				0,
				-0.8495307564735413,
				0,
				0.5275391340255737
			],
			"scale":[
				0.06758611649274826,
				0.6593638062477112,
				0.3157625198364258
			],
			"translation":[
				-3.2310385704040527,
				2.1629743576049805,
				0.29274940490722656
			]
		},
		{
			"extras":{
				"booleans":{}
			},
			"mesh":9,
			"name":"BODY.001",
			"rotation":[
				0,
				-0.8495307564735413,
				0,
				0.5275391340255737
			],
			"scale":[
				2,
				2,
				2
			],
			"translation":[
				-1.2891523838043213,
				1.0022014379501343,
				-0.9942488670349121
			]
		}
	],
	"materials":[
		{
			"doubleSided":true,
			"emissiveFactor":[
				0.10000000149011612,
				0.10000000149011612,
				0.10000000149011612
			],
			"emissiveTexture":{
				"index":0
			},
			"name":"Material.001",
			"pbrMetallicRoughness":{
				"baseColorTexture":{
					"index":1
				},
				"metallicFactor":0,
				"roughnessFactor":0.5
			}
		},
		{
			"doubleSided":true,
			"name":"mainmaterial",
			"pbrMetallicRoughness":{
				"baseColorFactor":[
					0.4528234601020813,
					0.7183959484100342,
					1,
					1
				],
				"metallicFactor":0,
				"roughnessFactor":0.5
			}
		},
		{
			"doubleSided":true,
			"emissiveFactor":[
				0.027098294347524643,
				0.800315260887146,
				0
			],
			"name":"\u043f\u043e\u0434\u0441\u0432\u0435\u0442\u043a\u0430",
			"pbrMetallicRoughness":{
				"baseColorFactor":[
					0.027098294347524643,
					0.800315260887146,
					0,
					1
				],
				"metallicFactor":0,
				"roughnessFactor":0.5
			}
		},
		{
			"doubleSided":true,
			"emissiveFactor":[
				0.5,
				0.5,
				0.5
			],
			"name":"\u0431\u0435\u043b\u0430\u044f \u043f\u043e\u0434\u0441\u0432\u0435\u0442\u043a\u0430",
			"pbrMetallicRoughness":{
				"baseColorFactor":[
					0.800000011920929,
					0.800000011920929,
					0.800000011920929,
					1
				],
				"metallicFactor":0,
				"roughnessFactor":0.5
			}
		},
		{
			"doubleSided":true,
			"emissiveFactor":[
				1,
				1,
				1
			],
			"name":"\u043e\u0447\u0435\u043d\u044c \u044f\u0440\u043a\u0438\u0439 \u0441\u0432\u0435\u0442",
			"pbrMetallicRoughness":{
				"baseColorFactor":[
					0.800000011920929,
					0.800000011920929,
					0.800000011920929,
					1
				],
				"metallicFactor":0,
				"roughnessFactor":0.5
			}
		},
		{
			"doubleSided":true,
			"name":"MAIM_MATERIAL",
			"pbrMetallicRoughness":{
				"baseColorFactor":[
					0.4537700414657593,
					0.7274099588394165,
					1,
					1
				],
				"metallicFactor":0,
				"roughnessFactor":0.5
			}
		},
		{
			"doubleSided":true,
			"name":"screen",
			"pbrMetallicRoughness":{
				"baseColorTexture":{
					"index":2
				},
				"metallicFactor":0,
				"roughnessFactor":0.5
			}
		},
		{
			"doubleSided":true,
			"extensions":{
				"KHR_materials_transmission":{
					"transmissionFactor":1
				}
			},
			"name":"Material",
			"pbrMetallicRoughness":{
				"baseColorFactor":[
					0.800000011920929,
					0.800000011920929,
					0.800000011920929,
					1
				],
				"metallicFactor":0,
				"roughnessFactor":0
			}
		},
		{
			"doubleSided":true,
			"emissiveFactor":[
				0.0370459258556366,
				1,
				0
			],
			"name":"Material.003",
			"pbrMetallicRoughness":{
				"baseColorFactor":[
					0.0370459258556366,
					1,
					0,
					1
				],
				"metallicFactor":0,
				"roughnessFactor":0.5
			}
		}
	],
	"meshes":[
		{
			"name":"Cube.003",
			"primitives":[
				{
					"attributes":{
						"POSITION":0,
						"NORMAL":1,
						"TEXCOORD_0":2
					},
					"indices":3,
					"material":0
				}
			]
		},
		{
			"name":"Cube.004",
			"primitives":[
				{
					"attributes":{
						"POSITION":4,
						"NORMAL":5,
						"TEXCOORD_0":6
					},
					"indices":7,
					"material":1
				}
			]
		},
		{
			"name":"Cube.001",
			"primitives":[
				{
					"attributes":{
						"POSITION":8,
						"NORMAL":9,
						"TEXCOORD_0":10
					},
					"indices":11,
					"material":1
				},
				{
					"attributes":{
						"POSITION":12,
						"NORMAL":13,
						"TEXCOORD_0":14
					},
					"indices":15,
					"material":2
				},
				{
					"attributes":{
						"POSITION":16,
						"NORMAL":17,
						"TEXCOORD_0":18
					},
					"indices":19,
					"material":3
				},
				{
					"attributes":{
						"POSITION":20,
						"NORMAL":21,
						"TEXCOORD_0":22
					},
					"indices":23,
					"material":4
				}
			]
		},
		{
			"name":"Cube.006",
			"primitives":[
				{
					"attributes":{
						"POSITION":24,
						"NORMAL":25,
						"TEXCOORD_0":26
					},
					"indices":27,
					"material":1
				},
				{
					"attributes":{
						"POSITION":28,
						"NORMAL":29,
						"TEXCOORD_0":30
					},
					"indices":31,
					"material":3
				}
			]
		},
		{
			"name":"Cube.005",
			"primitives":[
				{
					"attributes":{
						"POSITION":32,
						"NORMAL":33,
						"TEXCOORD_0":34
					},
					"indices":27,
					"material":1
				},
				{
					"attributes":{
						"POSITION":35,
						"NORMAL":36,
						"TEXCOORD_0":37
					},
					"indices":31,
					"material":3
				}
			]
		},
		{
			"name":"Cube.002",
			"primitives":[
				{
					"attributes":{
						"POSITION":38,
						"NORMAL":39,
						"TEXCOORD_0":40
					},
					"indices":27,
					"material":1
				},
				{
					"attributes":{
						"POSITION":41,
						"NORMAL":42,
						"TEXCOORD_0":43
					},
					"indices":31,
					"material":3
				}
			]
		},
		{
			"name":"Cube.009",
			"primitives":[
				{
					"attributes":{
						"POSITION":44,
						"NORMAL":45,
						"TEXCOORD_0":46
					},
					"indices":47,
					"material":5
				}
			]
		},
		{
			"name":"Cube.008",
			"primitives":[
				{
					"attributes":{
						"POSITION":48,
						"NORMAL":49,
						"TEXCOORD_0":50
					},
					"indices":47,
					"material":5
				}
			]
		},
		{
			"name":"Cube.007",
			"primitives":[
				{
					"attributes":{
						"POSITION":51,
						"NORMAL":52,
						"TEXCOORD_0":53
					},
					"indices":54,
					"material":6
				}
			]
		},
		{
			"name":"Cube.010",
			"primitives":[
				{
					"attributes":{
						"POSITION":55,
						"NORMAL":56,
						"TEXCOORD_0":57
					},
					"indices":58,
					"material":5
				},
				{
					"attributes":{
						"POSITION":59,
						"NORMAL":60,
						"TEXCOORD_0":61
					},
					"indices":62,
					"material":7
				},
				{
					"attributes":{
						"POSITION":63,
						"NORMAL":64,
						"TEXCOORD_0":65
					},
					"indices":66,
					"material":8
				}
			]
		}
	],
	"textures":[
		{
			"sampler":0,
			"source":0
		},
		{
			"sampler":0,
			"source":0
		},
		{
			"sampler":0,
			"source":1
		}
	],
	"images":[
		{
			"mimeType":"image/jpeg",
			"name":"WhatsApp Image 2024-11-29 at 13.46.44",
			"uri":"textures/WhatsApp%20Image%202024-11-29%20at%2013_46_44.jpg"
		},
		{
			"mimeType":"image/jpeg",
			"name":"WhatsApp Image 2024-11-29 at 13.46.44.jpeg",
			"uri":"textures/WhatsApp%20Image%202024-11-29%20at%2013_46_44_jpeg.jpg"
		}
	],
	"accessors":[
		{
			"bufferView":0,
			"componentType":5126,
			"count":24,
			"max":[
				0.050699204206466675,
				0.5105434656143188,
				0.25716695189476013
			],
			"min":[
				-0.050699204206466675,
				-0.17331469058990479,
				-0.2571670711040497
			],
			"type":"VEC3"
		},
		{
			"bufferView":1,
			"componentType":5126,
			"count":24,
			"type":"VEC3"
		},
		{
			"bufferView":2,
			"componentType":5126,
			"count":24,
			"type":"VEC2"
		},
		{
			"bufferView":3,
			"componentType":5123,
			"count":36,
			"type":"SCALAR"
		},
		{
			"bufferView":4,
			"componentType":5126,
			"count":1320,
			"max":[
				0.17324435710906982,
				0.32365989685058594,
				0.30902722477912903
			],
			"min":[
				-0.027547389268875122,
				-0.32610249519348145,
				-0.3407352566719055
			],
			"type":"VEC3"
		},
		{
			"bufferView":5,
			"componentType":5126,
			"count":1320,
			"type":"VEC3"
		},
		{
			"bufferView":6,
			"componentType":5126,
			"count":1320,
			"type":"VEC2"
		},
		{
			"bufferView":7,
			"componentType":5123,
			"count":2052,
			"type":"SCALAR"
		},
		{
			"bufferView":8,
			"componentType":5126,
			"count":967,
			"max":[
				0.2358376383781433,
				3.304265022277832,
				1.198447346687317
			],
			"min":[
				-1,
				-1,
				-1
			],
			"type":"VEC3"
		},
		{
			"bufferView":9,
			"componentType":5126,
			"count":967,
			"type":"VEC3"
		},
		{
			"bufferView":10,
			"componentType":5126,
			"count":967,
			"type":"VEC2"
		},
		{
			"bufferView":11,
			"componentType":5123,
			"count":2253,
			"type":"SCALAR"
		},
		{
			"bufferView":12,
			"componentType":5126,
			"count":218,
			"max":[
				0.2358376383781433,
				3.304265022277832,
				1.198447346687317
			],
			"min":[
				-0.15139296650886536,
				-1,
				-1
			],
			"type":"VEC3"
		},
		{
			"bufferView":13,
			"componentType":5126,
			"count":218,
			"type":"VEC3"
		},
		{
			"bufferView":14,
			"componentType":5126,
			"count":218,
			"type":"VEC2"
		},
		{
			"bufferView":15,
			"componentType":5123,
			"count":501,
			"type":"SCALAR"
		},
		{
			"bufferView":16,
			"componentType":5126,
			"count":12,
			"max":[
				0.23583705723285675,
				0.9819879531860352,
				0.9845937490463257
			],
			"min":[
				-0.310977965593338,
				0.5482705235481262,
				-0.3195178806781769
			],
			"type":"VEC3"
		},
		{
			"bufferView":17,
			"componentType":5126,
			"count":12,
			"type":"VEC3"
		},
		{
			"bufferView":18,
			"componentType":5126,
			"count":12,
			"type":"VEC2"
		},
		{
			"bufferView":19,
			"componentType":5123,
			"count":30,
			"type":"SCALAR"
		},
		{
			"bufferView":20,
			"componentType":5126,
			"count":40,
			"max":[
				0.2358376383781433,
				2.850247383117676,
				0.9845937490463257
			],
			"min":[
				-0.310977965593338,
				-0.154054194688797,
				-0.3195178806781769
			],
			"type":"VEC3"
		},
		{
			"bufferView":21,
			"componentType":5126,
			"count":40,
			"type":"VEC3"
		},
		{
			"bufferView":22,
			"componentType":5126,
			"count":40,
			"type":"VEC2"
		},
		{
			"bufferView":23,
			"componentType":5123,
			"count":96,
			"type":"SCALAR"
		},
		{
			"bufferView":24,
			"componentType":5126,
			"count":20,
			"max":[
				1,
				1,
				1
			],
			"min":[
				-1,
				-1,
				-1
			],
			"type":"VEC3"
		},
		{
			"bufferView":25,
			"componentType":5126,
			"count":20,
			"type":"VEC3"
		},
		{
			"bufferView":26,
			"componentType":5126,
			"count":20,
			"type":"VEC2"
		},
		{
			"bufferView":27,
			"componentType":5123,
			"count":30,
			"type":"SCALAR"
		},
		{
			"bufferView":28,
			"componentType":5126,
			"count":4,
			"max":[
				1,
				-1,
				1
			],
			"min":[
				-1,
				-1,
				-1
			],
			"type":"VEC3"
		},
		{
			"bufferView":29,
			"componentType":5126,
			"count":4,
			"type":"VEC3"
		},
		{
			"bufferView":30,
			"componentType":5126,
			"count":4,
			"type":"VEC2"
		},
		{
			"bufferView":31,
			"componentType":5123,
			"count":6,
			"type":"SCALAR"
		},
		{
			"bufferView":32,
			"componentType":5126,
			"count":20,
			"max":[
				1,
				1,
				1
			],
			"min":[
				-1,
				-1,
				-1
			],
			"type":"VEC3"
		},
		{
			"bufferView":33,
			"componentType":5126,
			"count":20,
			"type":"VEC3"
		},
		{
			"bufferView":34,
			"componentType":5126,
			"count":20,
			"type":"VEC2"
		},
		{
			"bufferView":35,
			"componentType":5126,
			"count":4,
			"max":[
				1,
				-1,
				1
			],
			"min":[
				-1,
				-1,
				-1
			],
			"type":"VEC3"
		},
		{
			"bufferView":36,
			"componentType":5126,
			"count":4,
			"type":"VEC3"
		},
		{
			"bufferView":37,
			"componentType":5126,
			"count":4,
			"type":"VEC2"
		},
		{
			"bufferView":38,
			"componentType":5126,
			"count":20,
			"max":[
				1,
				1,
				1
			],
			"min":[
				-1,
				-1,
				-1
			],
			"type":"VEC3"
		},
		{
			"bufferView":39,
			"componentType":5126,
			"count":20,
			"type":"VEC3"
		},
		{
			"bufferView":40,
			"componentType":5126,
			"count":20,
			"type":"VEC2"
		},
		{
			"bufferView":41,
			"componentType":5126,
			"count":4,
			"max":[
				1,
				-1,
				1
			],
			"min":[
				-1,
				-1,
				-1
			],
			"type":"VEC3"
		},
		{
			"bufferView":42,
			"componentType":5126,
			"count":4,
			"type":"VEC3"
		},
		{
			"bufferView":43,
			"componentType":5126,
			"count":4,
			"type":"VEC2"
		},
		{
			"bufferView":44,
			"componentType":5126,
			"count":1192,
			"max":[
				1.2786113023757935,
				1,
				1
			],
			"min":[
				-1,
				-1,
				-1
			],
			"type":"VEC3"
		},
		{
			"bufferView":45,
			"componentType":5126,
			"count":1192,
			"type":"VEC3"
		},
		{
			"bufferView":46,
			"componentType":5126,
			"count":1192,
			"type":"VEC2"
		},
		{
			"bufferView":47,
			"componentType":5123,
			"count":1788,
			"type":"SCALAR"
		},
		{
			"bufferView":48,
			"componentType":5126,
			"count":1192,
			"max":[
				1.2786113023757935,
				1,
				1
			],
			"min":[
				-1,
				-1,
				-1
			],
			"type":"VEC3"
		},
		{
			"bufferView":49,
			"componentType":5126,
			"count":1192,
			"type":"VEC3"
		},
		{
			"bufferView":50,
			"componentType":5126,
			"count":1192,
			"type":"VEC2"
		},
		{
			"bufferView":51,
			"componentType":5126,
			"count":24,
			"max":[
				1,
				0.39708197116851807,
				1
			],
			"min":[
				-1,
				-1,
				-1
			],
			"type":"VEC3"
		},
		{
			"bufferView":52,
			"componentType":5126,
			"count":24,
			"type":"VEC3"
		},
		{
			"bufferView":53,
			"componentType":5126,
			"count":24,
			"type":"VEC2"
		},
		{
			"bufferView":54,
			"componentType":5123,
			"count":36,
			"type":"SCALAR"
		},
		{
			"bufferView":55,
			"componentType":5126,
			"count":1654,
			"max":[
				1.0306202173233032,
				1,
				1
			],
			"min":[
				-1,
				-1,
				-1
			],
			"type":"VEC3"
		},
		{
			"bufferView":56,
			"componentType":5126,
			"count":1654,
			"type":"VEC3"
		},
		{
			"bufferView":57,
			"componentType":5126,
			"count":1654,
			"type":"VEC2"
		},
		{
			"bufferView":58,
			"componentType":5123,
			"count":4641,
			"type":"SCALAR"
		},
		{
			"bufferView":59,
			"componentType":5126,
			"count":96,
			"max":[
				0.9044011831283569,
				0.7961345911026001,
				0.2311568558216095
			],
			"min":[
				0.9044009447097778,
				-0.17895448207855225,
				-0.7028501033782959
			],
			"type":"VEC3"
		},
		{
			"bufferView":60,
			"componentType":5126,
			"count":96,
			"type":"VEC3"
		},
		{
			"bufferView":61,
			"componentType":5126,
			"count":96,
			"type":"VEC2"
		},
		{
			"bufferView":62,
			"componentType":5123,
			"count":270,
			"type":"SCALAR"
		},
		{
			"bufferView":63,
			"componentType":5126,
			"count":17,
			"max":[
				0.974922239780426,
				0.80629962682724,
				0.270275354385376
			],
			"min":[
				0.8044010400772095,
				-0.1937004029750824,
				-0.7297247052192688
			],
			"type":"VEC3"
		},
		{
			"bufferView":64,
			"componentType":5126,
			"count":17,
			"type":"VEC3"
		},
		{
			"bufferView":65,
			"componentType":5126,
			"count":17,
			"type":"VEC2"
		},
		{
			"bufferView":66,
			"componentType":5123,
			"count":27,
			"type":"SCALAR"
		}
	],
	"bufferViews":[
		{
			"buffer":0,
			"byteLength":288,
			"byteOffset":0,
			"target":34962
		},
		{
			"buffer":0,
			"byteLength":288,
			"byteOffset":288,
			"target":34962
		},
		{
			"buffer":0,
			"byteLength":192,
			"byteOffset":576,
			"target":34962
		},
		{
			"buffer":0,
			"byteLength":72,
			"byteOffset":768,
			"target":34963
		},
		{
			"buffer":0,
			"byteLength":15840,
			"byteOffset":840,
			"target":34962
		},
		{
			"buffer":0,
			"byteLength":15840,
			"byteOffset":16680,
			"target":34962
		},
		{
			"buffer":0,
			"byteLength":10560,
			"byteOffset":32520,
			"target":34962
		},
		{
			"buffer":0,
			"byteLength":4104,
			"byteOffset":43080,
			"target":34963
		},
		{
			"buffer":0,
			"byteLength":11604,
			"byteOffset":47184,
			"target":34962
		},
		{
			"buffer":0,
			"byteLength":11604,
			"byteOffset":58788,
			"target":34962
		},
		{
			"buffer":0,
			"byteLength":7736,
			"byteOffset":70392,
			"target":34962
		},
		{
			"buffer":0,
			"byteLength":4506,
			"byteOffset":78128,
			"target":34963
		},
		{
			"buffer":0,
			"byteLength":2616,
			"byteOffset":82636,
			"target":34962
		},
		{
			"buffer":0,
			"byteLength":2616,
			"byteOffset":85252,
			"target":34962
		},
		{
			"buffer":0,
			"byteLength":1744,
			"byteOffset":87868,
			"target":34962
		},
		{
			"buffer":0,
			"byteLength":1002,
			"byteOffset":89612,
			"target":34963
		},
		{
			"buffer":0,
			"byteLength":144,
			"byteOffset":90616,
			"target":34962
		},
		{
			"buffer":0,
			"byteLength":144,
			"byteOffset":90760,
			"target":34962
		},
		{
			"buffer":0,
			"byteLength":96,
			"byteOffset":90904,
			"target":34962
		},
		{
			"buffer":0,
			"byteLength":60,
			"byteOffset":91000,
			"target":34963
		},
		{
			"buffer":0,
			"byteLength":480,
			"byteOffset":91060,
			"target":34962
		},
		{
			"buffer":0,
			"byteLength":480,
			"byteOffset":91540,
			"target":34962
		},
		{
			"buffer":0,
			"byteLength":320,
			"byteOffset":92020,
			"target":34962
		},
		{
			"buffer":0,
			"byteLength":192,
			"byteOffset":92340,
			"target":34963
		},
		{
			"buffer":0,
			"byteLength":240,
			"byteOffset":92532,
			"target":34962
		},
		{
			"buffer":0,
			"byteLength":240,
			"byteOffset":92772,
			"target":34962
		},
		{
			"buffer":0,
			"byteLength":160,
			"byteOffset":93012,
			"target":34962
		},
		{
			"buffer":0,
			"byteLength":60,
			"byteOffset":93172,
			"target":34963
		},
		{
			"buffer":0,
			"byteLength":48,
			"byteOffset":93232,
			"target":34962
		},
		{
			"buffer":0,
			"byteLength":48,
			"byteOffset":93280,
			"target":34962
		},
		{
			"buffer":0,
			"byteLength":32,
			"byteOffset":93328,
			"target":34962
		},
		{
			"buffer":0,
			"byteLength":12,
			"byteOffset":93360,
			"target":34963
		},
		{
			"buffer":0,
			"byteLength":240,
			"byteOffset":93372,
			"target":34962
		},
		{
			"buffer":0,
			"byteLength":240,
			"byteOffset":93612,
			"target":34962
		},
		{
			"buffer":0,
			"byteLength":160,
			"byteOffset":93852,
			"target":34962
		},
		{
			"buffer":0,
			"byteLength":48,
			"byteOffset":94012,
			"target":34962
		},
		{
			"buffer":0,
			"byteLength":48,
			"byteOffset":94060,
			"target":34962
		},
		{
			"buffer":0,
			"byteLength":32,
			"byteOffset":94108,
			"target":34962
		},
		{
			"buffer":0,
			"byteLength":240,
			"byteOffset":94140,
			"target":34962
		},
		{
			"buffer":0,
			"byteLength":240,
			"byteOffset":94380,
			"target":34962
		},
		{
			"buffer":0,
			"byteLength":160,
			"byteOffset":94620,
			"target":34962
		},
		{
			"buffer":0,
			"byteLength":48,
			"byteOffset":94780,
			"target":34962
		},
		{
			"buffer":0,
			"byteLength":48,
			"byteOffset":94828,
			"target":34962
		},
		{
			"buffer":0,
			"byteLength":32,
			"byteOffset":94876,
			"target":34962
		},
		{
			"buffer":0,
			"byteLength":14304,
			"byteOffset":94908,
			"target":34962
		},
		{
			"buffer":0,
			"byteLength":14304,
			"byteOffset":109212,
			"target":34962
		},
		{
			"buffer":0,
			"byteLength":9536,
			"byteOffset":123516,
			"target":34962
		},
		{
			"buffer":0,
			"byteLength":3576,
			"byteOffset":133052,
			"target":34963
		},
		{
			"buffer":0,
			"byteLength":14304,
			"byteOffset":136628,
			"target":34962
		},
		{
			"buffer":0,
			"byteLength":14304,
			"byteOffset":150932,
			"target":34962
		},
		{
			"buffer":0,
			"byteLength":9536,
			"byteOffset":165236,
			"target":34962
		},
		{
			"buffer":0,
			"byteLength":288,
			"byteOffset":174772,
			"target":34962
		},
		{
			"buffer":0,
			"byteLength":288,
			"byteOffset":175060,
			"target":34962
		},
		{
			"buffer":0,
			"byteLength":192,
			"byteOffset":175348,
			"target":34962
		},
		{
			"buffer":0,
			"byteLength":72,
			"byteOffset":175540,
			"target":34963
		},
		{
			"buffer":0,
			"byteLength":19848,
			"byteOffset":175612,
			"target":34962
		},
		{
			"buffer":0,
			"byteLength":19848,
			"byteOffset":195460,
			"target":34962
		},
		{
			"buffer":0,
			"byteLength":13232,
			"byteOffset":215308,
			"target":34962
		},
		{
			"buffer":0,
			"byteLength":9282,
			"byteOffset":228540,
			"target":34963
		},
		{
			"buffer":0,
			"byteLength":1152,
			"byteOffset":237824,
			"target":34962
		},
		{
			"buffer":0,
			"byteLength":1152,
			"byteOffset":238976,
			"target":34962
		},
		{
			"buffer":0,
			"byteLength":768,
			"byteOffset":240128,
			"target":34962
		},
		{
			"buffer":0,
			"byteLength":540,
			"byteOffset":240896,
			"target":34963
		},
		{
			"buffer":0,
			"byteLength":204,
			"byteOffset":241436,
			"target":34962
		},
		{
			"buffer":0,
			"byteLength":204,
			"byteOffset":241640,
			"target":34962
		},
		{
			"buffer":0,
			"byteLength":136,
			"byteOffset":241844,
			"target":34962
		},
		{
			"buffer":0,
			"byteLength":54,
			"byteOffset":241980,
			"target":34963
		}
	],
	"samplers":[
		{
			"magFilter":9729,
			"minFilter":9987
		}
	],
	"buffers":[
		{
			"byteLength":242036,
			"uri":"%D0%BC%D0%BE%D0%B4%D0%B5%D0%BB%D1%8C_%D0%B4%D0%BB%D1%8F_%D1%81%D0%B0%D0%B9%D1%82%D0%B0.bin"
		}
	]
}
