{
	"asset":{
		"generator":"Khronos glTF Blender I/O v4.3.47",
		"version":"2.0"
	},
	"extensionsUsed":[
		"KHR_materials_emissive_strength"
	],
	"scene":0,
	"scenes":[
		{
			"name":"Scene",
			"nodes":[
				0,
				1,
				2,
				3,
				4,
				5
			]
		}
	],
	"nodes":[
		{
			"extras":{
				"booleans":{}
			},
			"mesh":0,
			"name":"order screen",
			"scale":[
				1.3444463014602661,
				1.3444463014602661,
				1.3444463014602661
			],
			"translation":[
				0.19844016432762146,
				2.1210989952087402,
				-0.5277587175369263
			]
		},
		{
			"extras":{
				"booleans":{}
			},
			"mesh":1,
			"name":"main part.001",
			"translation":[
				0.23135745525360107,
				1.283629059791565,
				-0.5084840059280396
			]
		},
		{
			"extras":{
				"booleans":{}
			},
			"mesh":2,
			"name":"main part"
		},
		{
			"extras":{
				"booleans":{}
			},
			"mesh":3,
			"name":"Cube.002",
			"rotation":[
				0,
				1,
				0,
				0
			],
			"scale":[
				-0.21972201764583588,
				-0.03487669676542282,
				-0.48137426376342773
			],
			"translation":[
				0,
				1.3856137990951538,
				0.4053014814853668
			]
		},
		{
			"extras":{
				"booleans":{}
			},
			"mesh":4,
			"name":"Cube.001",
			"rotation":[
				0,
				1,
				0,
				0
			],
			"scale":[
				-0.21972201764583588,
				-0.03487669676542282,
				-0.48137426376342773
			],
			"translation":[
				0,
				1.8760151863098145,
				0.4053014814853668
			]
		},
		{
			"extras":{
				"booleans":{}
			},
			"mesh":5,
			"name":"Cube",
			"rotation":[
				0,
				1,
				0,
				0
			],
			"scale":[
				-0.21972201764583588,
				-0.03487669676542282,
				-0.48137426376342773
			],
			"translation":[
				0,
				2.449730634689331,
				0.4053014814853668
			]
		}
	],
	"animations":[
		{
			"channels":[
				{
					"sampler":0,
					"target":{
						"node":0,
						"path":"translation"
					}
				},
				{
					"sampler":1,
					"target":{
						"node":0,
						"path":"rotation"
					}
				},
				{
					"sampler":2,
					"target":{
						"node":0,
						"path":"scale"
					}
				}
			],
			"name":"order screenAction",
			"samplers":[
				{
					"input":52,
					"interpolation":"LINEAR",
					"output":53
				},
				{
					"input":52,
					"interpolation":"LINEAR",
					"output":54
				},
				{
					"input":52,
					"interpolation":"LINEAR",
					"output":55
				}
			]
		},
		{
			"channels":[
				{
					"sampler":0,
					"target":{
						"node":1,
						"path":"translation"
					}
				},
				{
					"sampler":1,
					"target":{
						"node":1,
						"path":"rotation"
					}
				},
				{
					"sampler":2,
					"target":{
						"node":1,
						"path":"scale"
					}
				}
			],
			"name":"main part.001Action",
			"samplers":[
				{
					"input":56,
					"interpolation":"LINEAR",
					"output":57
				},
				{
					"input":56,
					"interpolation":"LINEAR",
					"output":58
				},
				{
					"input":59,
					"interpolation":"STEP",
					"output":60
				}
			]
		},
		{
			"channels":[
				{
					"sampler":0,
					"target":{
						"node":2,
						"path":"translation"
					}
				},
				{
					"sampler":1,
					"target":{
						"node":2,
						"path":"rotation"
					}
				},
				{
					"sampler":2,
					"target":{
						"node":2,
						"path":"scale"
					}
				}
			],
			"name":"main partAction",
			"samplers":[
				{
					"input":52,
					"interpolation":"LINEAR",
					"output":61
				},
				{
					"input":52,
					"interpolation":"LINEAR",
					"output":62
				},
				{
					"input":52,
					"interpolation":"LINEAR",
					"output":63
				}
			]
		},
		{
			"channels":[
				{
					"sampler":0,
					"target":{
						"node":3,
						"path":"translation"
					}
				},
				{
					"sampler":1,
					"target":{
						"node":3,
						"path":"rotation"
					}
				},
				{
					"sampler":2,
					"target":{
						"node":3,
						"path":"scale"
					}
				}
			],
			"name":"Cube.002Action",
			"samplers":[
				{
					"input":52,
					"interpolation":"LINEAR",
					"output":64
				},
				{
					"input":52,
					"interpolation":"LINEAR",
					"output":65
				},
				{
					"input":52,
					"interpolation":"LINEAR",
					"output":66
				}
			]
		},
		{
			"channels":[
				{
					"sampler":0,
					"target":{
						"node":4,
						"path":"translation"
					}
				},
				{
					"sampler":1,
					"target":{
						"node":4,
						"path":"rotation"
					}
				},
				{
					"sampler":2,
					"target":{
						"node":4,
						"path":"scale"
					}
				}
			],
			"name":"Cube.001Action",
			"samplers":[
				{
					"input":52,
					"interpolation":"LINEAR",
					"output":67
				},
				{
					"input":52,
					"interpolation":"LINEAR",
					"output":68
				},
				{
					"input":52,
					"interpolation":"LINEAR",
					"output":69
				}
			]
		},
		{
			"channels":[
				{
					"sampler":0,
					"target":{
						"node":5,
						"path":"translation"
					}
				},
				{
					"sampler":1,
					"target":{
						"node":5,
						"path":"rotation"
					}
				},
				{
					"sampler":2,
					"target":{
						"node":5,
						"path":"scale"
					}
				}
			],
			"name":"CubeAction",
			"samplers":[
				{
					"input":52,
					"interpolation":"LINEAR",
					"output":70
				},
				{
					"input":52,
					"interpolation":"LINEAR",
					"output":71
				},
				{
					"input":52,
					"interpolation":"LINEAR",
					"output":72
				}
			]
		}
	],
	"materials":[
		{
			"doubleSided":true,
			"emissiveFactor":[
				1,
				1,
				1
			],
			"emissiveTexture":{
				"index":0
			},
			"name":"Material.001",
			"pbrMetallicRoughness":{
				"baseColorTexture":{
					"index":1
				},
				"metallicFactor":0,
				"roughnessFactor":0.5
			}
		},
		{
			"doubleSided":true,
			"name":"mainmaterial",
			"pbrMetallicRoughness":{
				"baseColorFactor":[
					0.4528234601020813,
					0.7183959484100342,
					1,
					1
				],
				"metallicFactor":0,
				"roughnessFactor":0.5
			}
		},
		{
			"doubleSided":true,
			"emissiveFactor":[
				0.029808121197982373,
				0.8803467106518497,
				0
			],
			"name":"\u043f\u043e\u0434\u0441\u0432\u0435\u0442\u043a\u0430",
			"pbrMetallicRoughness":{
				"baseColorFactor":[
					0.027098294347524643,
					0.800315260887146,
					0,
					1
				],
				"metallicFactor":0,
				"roughnessFactor":0.5
			}
		},
		{
			"doubleSided":true,
			"emissiveFactor":[
				1,
				1,
				1
			],
			"name":"\u0431\u0435\u043b\u0430\u044f \u043f\u043e\u0434\u0441\u0432\u0435\u0442\u043a\u0430",
			"pbrMetallicRoughness":{
				"baseColorFactor":[
					0.800000011920929,
					0.800000011920929,
					0.800000011920929,
					1
				],
				"metallicFactor":0,
				"roughnessFactor":0.5
			}
		},
		{
			"doubleSided":true,
			"emissiveFactor":[
				1,
				1,
				1
			],
			"extensions":{
				"KHR_materials_emissive_strength":{
					"emissiveStrength":5
				}
			},
			"name":"\u043e\u0447\u0435\u043d\u044c \u044f\u0440\u043a\u0438\u0439 \u0441\u0432\u0435\u0442",
			"pbrMetallicRoughness":{
				"baseColorFactor":[
					0.800000011920929,
					0.800000011920929,
					0.800000011920929,
					1
				],
				"metallicFactor":0,
				"roughnessFactor":0.5
			}
		},
		{
			"doubleSided":true,
			"emissiveFactor":[
				0.04268142568094544,
				1,
				0
			],
			"extensions":{
				"KHR_materials_emissive_strength":{
					"emissiveStrength":7.204829156398773
				}
			},
			"name":"Material.003",
			"pbrMetallicRoughness":{
				"baseColorFactor":[
					0.03416804224252701,
					0.800536572933197,
					0,
					1
				],
				"metallicFactor":0,
				"roughnessFactor":0.5
			}
		},
		{
			"doubleSided":true,
			"emissiveFactor":[
				0.004829674403735392,
				1,
				0
			],
			"extensions":{
				"KHR_materials_emissive_strength":{
					"emissiveStrength":7.204540550708771
				}
			},
			"name":"Material.004",
			"pbrMetallicRoughness":{
				"baseColorFactor":[
					0.0038661761209368706,
					0.8005045056343079,
					0,
					1
				],
				"metallicFactor":0,
				"roughnessFactor":0.5
			}
		}
	],
	"meshes":[
		{
			"name":"Cube.003",
			"primitives":[
				{
					"attributes":{
						"POSITION":0,
						"NORMAL":1,
						"TEXCOORD_0":2
					},
					"indices":3,
					"material":0
				}
			]
		},
		{
			"name":"Cube.004",
			"primitives":[
				{
					"attributes":{
						"POSITION":4,
						"NORMAL":5,
						"TEXCOORD_0":6
					},
					"indices":7,
					"material":1
				}
			]
		},
		{
			"name":"Cube.001",
			"primitives":[
				{
					"attributes":{
						"POSITION":8,
						"NORMAL":9,
						"TEXCOORD_0":10
					},
					"indices":11,
					"material":1
				},
				{
					"attributes":{
						"POSITION":12,
						"NORMAL":13,
						"TEXCOORD_0":14
					},
					"indices":15,
					"material":2
				},
				{
					"attributes":{
						"POSITION":16,
						"NORMAL":17,
						"TEXCOORD_0":18
					},
					"indices":19,
					"material":3
				},
				{
					"attributes":{
						"POSITION":20,
						"NORMAL":21,
						"TEXCOORD_0":22
					},
					"indices":23,
					"material":4
				},
				{
					"attributes":{
						"POSITION":24,
						"NORMAL":25,
						"TEXCOORD_0":26
					},
					"indices":27,
					"material":5
				},
				{
					"attributes":{
						"POSITION":28,
						"NORMAL":29,
						"TEXCOORD_0":30
					},
					"indices":31,
					"material":6
				}
			]
		},
		{
			"name":"Cube.006",
			"primitives":[
				{
					"attributes":{
						"POSITION":32,
						"NORMAL":33,
						"TEXCOORD_0":34
					},
					"indices":35,
					"material":1
				},
				{
					"attributes":{
						"POSITION":36,
						"NORMAL":37,
						"TEXCOORD_0":38
					},
					"indices":39,
					"material":3
				}
			]
		},
		{
			"name":"Cube.005",
			"primitives":[
				{
					"attributes":{
						"POSITION":40,
						"NORMAL":41,
						"TEXCOORD_0":42
					},
					"indices":35,
					"material":1
				},
				{
					"attributes":{
						"POSITION":43,
						"NORMAL":44,
						"TEXCOORD_0":45
					},
					"indices":39,
					"material":3
				}
			]
		},
		{
			"name":"Cube.002",
			"primitives":[
				{
					"attributes":{
						"POSITION":46,
						"NORMAL":47,
						"TEXCOORD_0":48
					},
					"indices":35,
					"material":1
				},
				{
					"attributes":{
						"POSITION":49,
						"NORMAL":50,
						"TEXCOORD_0":51
					},
					"indices":39,
					"material":3
				}
			]
		}
	],
	"textures":[
		{
			"sampler":0,
			"source":0
		},
		{
			"sampler":0,
			"source":0
		}
	],
	"images":[
		{
			"mimeType":"image/jpeg",
			"name":"WhatsApp Image 2024-11-29 at 13.46.44",
			"uri":"textures/WhatsApp%20Image%202024-11-29%20at%2013_46_44.jpg"
		}
	],
	"accessors":[
		{
			"bufferView":0,
			"componentType":5126,
			"count":24,
			"max":[
				0.050699204206466675,
				0.5105434656143188,
				0.25716695189476013
			],
			"min":[
				-0.050699204206466675,
				-0.17331469058990479,
				-0.2571670711040497
			],
			"type":"VEC3"
		},
		{
			"bufferView":1,
			"componentType":5126,
			"count":24,
			"type":"VEC3"
		},
		{
			"bufferView":2,
			"componentType":5126,
			"count":24,
			"type":"VEC2"
		},
		{
			"bufferView":3,
			"componentType":5123,
			"count":36,
			"type":"SCALAR"
		},
		{
			"bufferView":4,
			"componentType":5126,
			"count":1320,
			"max":[
				0.17324435710906982,
				0.32365989685058594,
				0.30902722477912903
			],
			"min":[
				-0.027547389268875122,
				-0.32610249519348145,
				-0.3407352566719055
			],
			"type":"VEC3"
		},
		{
			"bufferView":5,
			"componentType":5126,
			"count":1320,
			"type":"VEC3"
		},
		{
			"bufferView":6,
			"componentType":5126,
			"count":1320,
			"type":"VEC2"
		},
		{
			"bufferView":7,
			"componentType":5123,
			"count":2052,
			"type":"SCALAR"
		},
		{
			"bufferView":8,
			"componentType":5126,
			"count":1023,
			"max":[
				0.2358376383781433,
				3.304265022277832,
				1.198447346687317
			],
			"min":[
				-1,
				-1,
				-1
			],
			"type":"VEC3"
		},
		{
			"bufferView":9,
			"componentType":5126,
			"count":1023,
			"type":"VEC3"
		},
		{
			"bufferView":10,
			"componentType":5126,
			"count":1023,
			"type":"VEC2"
		},
		{
			"bufferView":11,
			"componentType":5123,
			"count":2577,
			"type":"SCALAR"
		},
		{
			"bufferView":12,
			"componentType":5126,
			"count":240,
			"max":[
				0.2358376383781433,
				3.304265022277832,
				1.198447346687317
			],
			"min":[
				-0.15139296650886536,
				-1,
				-1
			],
			"type":"VEC3"
		},
		{
			"bufferView":13,
			"componentType":5126,
			"count":240,
			"type":"VEC3"
		},
		{
			"bufferView":14,
			"componentType":5126,
			"count":240,
			"type":"VEC2"
		},
		{
			"bufferView":15,
			"componentType":5123,
			"count":501,
			"type":"SCALAR"
		},
		{
			"bufferView":16,
			"componentType":5126,
			"count":12,
			"max":[
				0.23583705723285675,
				0.9819879531860352,
				0.9845937490463257
			],
			"min":[
				-0.310977965593338,
				0.5482705235481262,
				-0.3195178806781769
			],
			"type":"VEC3"
		},
		{
			"bufferView":17,
			"componentType":5126,
			"count":12,
			"type":"VEC3"
		},
		{
			"bufferView":18,
			"componentType":5126,
			"count":12,
			"type":"VEC2"
		},
		{
			"bufferView":19,
			"componentType":5123,
			"count":30,
			"type":"SCALAR"
		},
		{
			"bufferView":20,
			"componentType":5126,
			"count":40,
			"max":[
				0.2358376383781433,
				2.850247383117676,
				0.9845937490463257
			],
			"min":[
				-0.310977965593338,
				-0.154054194688797,
				-0.3195178806781769
			],
			"type":"VEC3"
		},
		{
			"bufferView":21,
			"componentType":5126,
			"count":40,
			"type":"VEC3"
		},
		{
			"bufferView":22,
			"componentType":5126,
			"count":40,
			"type":"VEC2"
		},
		{
			"bufferView":23,
			"componentType":5123,
			"count":96,
			"type":"SCALAR"
		},
		{
			"bufferView":24,
			"componentType":5126,
			"count":4,
			"max":[
				-1,
				3.1429808139801025,
				-0.4726206064224243
			],
			"min":[
				-1,
				-0.8387158513069153,
				-1
			],
			"type":"VEC3"
		},
		{
			"bufferView":25,
			"componentType":5126,
			"count":4,
			"type":"VEC3"
		},
		{
			"bufferView":26,
			"componentType":5126,
			"count":4,
			"type":"VEC2"
		},
		{
			"bufferView":27,
			"componentType":5123,
			"count":6,
			"type":"SCALAR"
		},
		{
			"bufferView":28,
			"componentType":5126,
			"count":4,
			"max":[
				-1,
				3.1429808139801025,
				1.198447346687317
			],
			"min":[
				-1,
				-0.8387158513069153,
				0.6776821613311768
			],
			"type":"VEC3"
		},
		{
			"bufferView":29,
			"componentType":5126,
			"count":4,
			"type":"VEC3"
		},
		{
			"bufferView":30,
			"componentType":5126,
			"count":4,
			"type":"VEC2"
		},
		{
			"bufferView":31,
			"componentType":5123,
			"count":6,
			"type":"SCALAR"
		},
		{
			"bufferView":32,
			"componentType":5126,
			"count":20,
			"max":[
				1,
				1,
				1
			],
			"min":[
				-1,
				-1,
				-1
			],
			"type":"VEC3"
		},
		{
			"bufferView":33,
			"componentType":5126,
			"count":20,
			"type":"VEC3"
		},
		{
			"bufferView":34,
			"componentType":5126,
			"count":20,
			"type":"VEC2"
		},
		{
			"bufferView":35,
			"componentType":5123,
			"count":30,
			"type":"SCALAR"
		},
		{
			"bufferView":36,
			"componentType":5126,
			"count":4,
			"max":[
				1,
				-1,
				1
			],
			"min":[
				-1,
				-1,
				-1
			],
			"type":"VEC3"
		},
		{
			"bufferView":37,
			"componentType":5126,
			"count":4,
			"type":"VEC3"
		},
		{
			"bufferView":38,
			"componentType":5126,
			"count":4,
			"type":"VEC2"
		},
		{
			"bufferView":39,
			"componentType":5123,
			"count":6,
			"type":"SCALAR"
		},
		{
			"bufferView":40,
			"componentType":5126,
			"count":20,
			"max":[
				1,
				1,
				1
			],
			"min":[
				-1,
				-1,
				-1
			],
			"type":"VEC3"
		},
		{
			"bufferView":41,
			"componentType":5126,
			"count":20,
			"type":"VEC3"
		},
		{
			"bufferView":42,
			"componentType":5126,
			"count":20,
			"type":"VEC2"
		},
		{
			"bufferView":43,
			"componentType":5126,
			"count":4,
			"max":[
				1,
				-1,
				1
			],
			"min":[
				-1,
				-1,
				-1
			],
			"type":"VEC3"
		},
		{
			"bufferView":44,
			"componentType":5126,
			"count":4,
			"type":"VEC3"
		},
		{
			"bufferView":45,
			"componentType":5126,
			"count":4,
			"type":"VEC2"
		},
		{
			"bufferView":46,
			"componentType":5126,
			"count":20,
			"max":[
				1,
				1,
				1
			],
			"min":[
				-1,
				-1,
				-1
			],
			"type":"VEC3"
		},
		{
			"bufferView":47,
			"componentType":5126,
			"count":20,
			"type":"VEC3"
		},
		{
			"bufferView":48,
			"componentType":5126,
			"count":20,
			"type":"VEC2"
		},
		{
			"bufferView":49,
			"componentType":5126,
			"count":4,
			"max":[
				1,
				-1,
				1
			],
			"min":[
				-1,
				-1,
				-1
			],
			"type":"VEC3"
		},
		{
			"bufferView":50,
			"componentType":5126,
			"count":4,
			"type":"VEC3"
		},
		{
			"bufferView":51,
			"componentType":5126,
			"count":4,
			"type":"VEC2"
		},
		{
			"bufferView":52,
			"componentType":5126,
			"count":1,
			"max":[
				0
			],
			"min":[
				0
			],
			"type":"SCALAR"
		},
		{
			"bufferView":53,
			"componentType":5126,
			"count":1,
			"type":"VEC3"
		},
		{
			"bufferView":54,
			"componentType":5126,
			"count":1,
			"type":"VEC4"
		},
		{
			"bufferView":55,
			"componentType":5126,
			"count":1,
			"type":"VEC3"
		},
		{
			"bufferView":56,
			"componentType":5126,
			"count":81,
			"max":[
				3.3333333333333335
			],
			"min":[
				0
			],
			"type":"SCALAR"
		},
		{
			"bufferView":57,
			"componentType":5126,
			"count":81,
			"type":"VEC3"
		},
		{
			"bufferView":58,
			"componentType":5126,
			"count":81,
			"type":"VEC4"
		},
		{
			"bufferView":59,
			"componentType":5126,
			"count":2,
			"max":[
				3.3333333333333335
			],
			"min":[
				0
			],
			"type":"SCALAR"
		},
		{
			"bufferView":60,
			"componentType":5126,
			"count":2,
			"type":"VEC3"
		},
		{
			"bufferView":61,
			"componentType":5126,
			"count":1,
			"type":"VEC3"
		},
		{
			"bufferView":62,
			"componentType":5126,
			"count":1,
			"type":"VEC4"
		},
		{
			"bufferView":63,
			"componentType":5126,
			"count":1,
			"type":"VEC3"
		},
		{
			"bufferView":64,
			"componentType":5126,
			"count":1,
			"type":"VEC3"
		},
		{
			"bufferView":65,
			"componentType":5126,
			"count":1,
			"type":"VEC4"
		},
		{
			"bufferView":66,
			"componentType":5126,
			"count":1,
			"type":"VEC3"
		},
		{
			"bufferView":67,
			"componentType":5126,
			"count":1,
			"type":"VEC3"
		},
		{
			"bufferView":68,
			"componentType":5126,
			"count":1,
			"type":"VEC4"
		},
		{
			"bufferView":69,
			"componentType":5126,
			"count":1,
			"type":"VEC3"
		},
		{
			"bufferView":70,
			"componentType":5126,
			"count":1,
			"type":"VEC3"
		},
		{
			"bufferView":71,
			"componentType":5126,
			"count":1,
			"type":"VEC4"
		},
		{
			"bufferView":72,
			"componentType":5126,
			"count":1,
			"type":"VEC3"
		}
	],
	"bufferViews":[
		{
			"buffer":0,
			"byteLength":288,
			"byteOffset":0,
			"target":34962
		},
		{
			"buffer":0,
			"byteLength":288,
			"byteOffset":288,
			"target":34962
		},
		{
			"buffer":0,
			"byteLength":192,
			"byteOffset":576,
			"target":34962
		},
		{
			"buffer":0,
			"byteLength":72,
			"byteOffset":768,
			"target":34963
		},
		{
			"buffer":0,
			"byteLength":15840,
			"byteOffset":840,
			"target":34962
		},
		{
			"buffer":0,
			"byteLength":15840,
			"byteOffset":16680,
			"target":34962
		},
		{
			"buffer":0,
			"byteLength":10560,
			"byteOffset":32520,
			"target":34962
		},
		{
			"buffer":0,
			"byteLength":4104,
			"byteOffset":43080,
			"target":34963
		},
		{
			"buffer":0,
			"byteLength":12276,
			"byteOffset":47184,
			"target":34962
		},
		{
			"buffer":0,
			"byteLength":12276,
			"byteOffset":59460,
			"target":34962
		},
		{
			"buffer":0,
			"byteLength":8184,
			"byteOffset":71736,
			"target":34962
		},
		{
			"buffer":0,
			"byteLength":5154,
			"byteOffset":79920,
			"target":34963
		},
		{
			"buffer":0,
			"byteLength":2880,
			"byteOffset":85076,
			"target":34962
		},
		{
			"buffer":0,
			"byteLength":2880,
			"byteOffset":87956,
			"target":34962
		},
		{
			"buffer":0,
			"byteLength":1920,
			"byteOffset":90836,
			"target":34962
		},
		{
			"buffer":0,
			"byteLength":1002,
			"byteOffset":92756,
			"target":34963
		},
		{
			"buffer":0,
			"byteLength":144,
			"byteOffset":93760,
			"target":34962
		},
		{
			"buffer":0,
			"byteLength":144,
			"byteOffset":93904,
			"target":34962
		},
		{
			"buffer":0,
			"byteLength":96,
			"byteOffset":94048,
			"target":34962
		},
		{
			"buffer":0,
			"byteLength":60,
			"byteOffset":94144,
			"target":34963
		},
		{
			"buffer":0,
			"byteLength":480,
			"byteOffset":94204,
			"target":34962
		},
		{
			"buffer":0,
			"byteLength":480,
			"byteOffset":94684,
			"target":34962
		},
		{
			"buffer":0,
			"byteLength":320,
			"byteOffset":95164,
			"target":34962
		},
		{
			"buffer":0,
			"byteLength":192,
			"byteOffset":95484,
			"target":34963
		},
		{
			"buffer":0,
			"byteLength":48,
			"byteOffset":95676,
			"target":34962
		},
		{
			"buffer":0,
			"byteLength":48,
			"byteOffset":95724,
			"target":34962
		},
		{
			"buffer":0,
			"byteLength":32,
			"byteOffset":95772,
			"target":34962
		},
		{
			"buffer":0,
			"byteLength":12,
			"byteOffset":95804,
			"target":34963
		},
		{
			"buffer":0,
			"byteLength":48,
			"byteOffset":95816,
			"target":34962
		},
		{
			"buffer":0,
			"byteLength":48,
			"byteOffset":95864,
			"target":34962
		},
		{
			"buffer":0,
			"byteLength":32,
			"byteOffset":95912,
			"target":34962
		},
		{
			"buffer":0,
			"byteLength":12,
			"byteOffset":95944,
			"target":34963
		},
		{
			"buffer":0,
			"byteLength":240,
			"byteOffset":95956,
			"target":34962
		},
		{
			"buffer":0,
			"byteLength":240,
			"byteOffset":96196,
			"target":34962
		},
		{
			"buffer":0,
			"byteLength":160,
			"byteOffset":96436,
			"target":34962
		},
		{
			"buffer":0,
			"byteLength":60,
			"byteOffset":96596,
			"target":34963
		},
		{
			"buffer":0,
			"byteLength":48,
			"byteOffset":96656,
			"target":34962
		},
		{
			"buffer":0,
			"byteLength":48,
			"byteOffset":96704,
			"target":34962
		},
		{
			"buffer":0,
			"byteLength":32,
			"byteOffset":96752,
			"target":34962
		},
		{
			"buffer":0,
			"byteLength":12,
			"byteOffset":96784,
			"target":34963
		},
		{
			"buffer":0,
			"byteLength":240,
			"byteOffset":96796,
			"target":34962
		},
		{
			"buffer":0,
			"byteLength":240,
			"byteOffset":97036,
			"target":34962
		},
		{
			"buffer":0,
			"byteLength":160,
			"byteOffset":97276,
			"target":34962
		},
		{
			"buffer":0,
			"byteLength":48,
			"byteOffset":97436,
			"target":34962
		},
		{
			"buffer":0,
			"byteLength":48,
			"byteOffset":97484,
			"target":34962
		},
		{
			"buffer":0,
			"byteLength":32,
			"byteOffset":97532,
			"target":34962
		},
		{
			"buffer":0,
			"byteLength":240,
			"byteOffset":97564,
			"target":34962
		},
		{
			"buffer":0,
			"byteLength":240,
			"byteOffset":97804,
			"target":34962
		},
		{
			"buffer":0,
			"byteLength":160,
			"byteOffset":98044,
			"target":34962
		},
		{
			"buffer":0,
			"byteLength":48,
			"byteOffset":98204,
			"target":34962
		},
		{
			"buffer":0,
			"byteLength":48,
			"byteOffset":98252,
			"target":34962
		},
		{
			"buffer":0,
			"byteLength":32,
			"byteOffset":98300,
			"target":34962
		},
		{
			"buffer":0,
			"byteLength":4,
			"byteOffset":98332
		},
		{
			"buffer":0,
			"byteLength":12,
			"byteOffset":98336
		},
		{
			"buffer":0,
			"byteLength":16,
			"byteOffset":98348
		},
		{
			"buffer":0,
			"byteLength":12,
			"byteOffset":98364
		},
		{
			"buffer":0,
			"byteLength":324,
			"byteOffset":98376
		},
		{
			"buffer":0,
			"byteLength":972,
			"byteOffset":98700
		},
		{
			"buffer":0,
			"byteLength":1296,
			"byteOffset":99672
		},
		{
			"buffer":0,
			"byteLength":8,
			"byteOffset":100968
		},
		{
			"buffer":0,
			"byteLength":24,
			"byteOffset":100976
		},
		{
			"buffer":0,
			"byteLength":12,
			"byteOffset":101000
		},
		{
			"buffer":0,
			"byteLength":16,
			"byteOffset":101012
		},
		{
			"buffer":0,
			"byteLength":12,
			"byteOffset":101028
		},
		{
			"buffer":0,
			"byteLength":12,
			"byteOffset":101040
		},
		{
			"buffer":0,
			"byteLength":16,
			"byteOffset":101052
		},
		{
			"buffer":0,
			"byteLength":12,
			"byteOffset":101068
		},
		{
			"buffer":0,
			"byteLength":12,
			"byteOffset":101080
		},
		{
			"buffer":0,
			"byteLength":16,
			"byteOffset":101092
		},
		{
			"buffer":0,
			"byteLength":12,
			"byteOffset":101108
		},
		{
			"buffer":0,
			"byteLength":12,
			"byteOffset":101120
		},
		{
			"buffer":0,
			"byteLength":16,
			"byteOffset":101132
		},
		{
			"buffer":0,
			"byteLength":12,
			"byteOffset":101148
		}
	],
	"samplers":[
		{
			"magFilter":9729,
			"minFilter":9987
		}
	],
	"buffers":[
		{
			"byteLength":101160,
			"uri":"obloshka.bin"
		}
	]
}
